<svg width="82" height="91" viewBox="0 0 82 91" fill="none" xmlns="http://www.w3.org/2000/svg">
<path d="M35.68 60.29L19.53 43.38C19.4448 43.2875 19.3411 43.214 19.2257 43.164C19.1103 43.1141 18.9857 43.0889 18.86 43.09H1C0.821595 43.0925 0.647675 43.1463 0.498991 43.2449C0.350308 43.3436 0.233136 43.4829 0.161454 43.6463C0.0897713 43.8097 0.0666047 43.9902 0.0947172 44.1664C0.12283 44.3426 0.201034 44.507 0.320003 44.64L15.79 61.55C15.8766 61.6441 15.9817 61.7193 16.0987 61.7709C16.2157 61.8225 16.3421 61.8494 16.47 61.85H35C35.1805 61.8481 35.3566 61.7943 35.5074 61.695C35.6581 61.5957 35.777 61.4551 35.85 61.29C35.9228 61.125 35.9455 60.9422 35.9153 60.7645C35.885 60.5867 35.8032 60.4217 35.68 60.29ZM18.81 45.29L25.68 55.76L18.31 52.11L14.12 44.93H18.47L18.81 45.29ZM4.12 46.09L16.82 52.4L11.67 54.32L4.12 46.09ZM13.06 44.93L16.81 51.36L3.81 44.93H13.06ZM12.34 55.05L18 53L25.51 56.73L17 60H16.91L12.34 55.05ZM46 61.29C46.0719 61.4559 46.1906 61.5972 46.3416 61.6966C46.4925 61.7961 46.6692 61.8494 46.85 61.85H65.37C65.498 61.85 65.6246 61.8234 65.7416 61.7717C65.8587 61.7201 65.9638 61.6446 66.05 61.55L81.57 44.64C81.6932 44.5083 81.775 44.3433 81.8053 44.1655C81.8355 43.9878 81.8128 43.805 81.74 43.64C81.6673 43.4776 81.5495 43.3394 81.4006 43.2419C81.2517 43.1444 81.078 43.0917 80.9 43.09H63C62.8758 43.089 62.7527 43.1143 62.6389 43.1643C62.5252 43.2143 62.4233 43.2878 62.34 43.38L46.16 60.29C46.0407 60.424 45.9622 60.5894 45.9338 60.7666C45.9055 60.9438 45.9284 61.1254 46 61.29ZM63.4 44.94H67.74L63.55 52.12L56.18 55.77L63 45.3L63.4 44.94ZM70.2 54.33L65 52.41L77.7 46.1L70.2 54.33ZM78 44.94L65 51.37L68.75 44.94H78ZM65 60H64.9L56.41 56.7L63.89 53L69.5 55.09L65 60ZM81.84 14.85V14.79C81.84 14.79 81.84 14.73 81.84 14.69C81.8286 14.612 81.8013 14.5371 81.76 14.47L81.69 14.36C81.6404 14.2904 81.5796 14.2296 81.51 14.18L81.45 14.12L59.08 0.14C58.9364 0.0489335 58.77 0.000393414 58.6 0L23.25 0C23.08 0.000393414 22.9136 0.0489335 22.77 0.14L0.430003 14.12V14.18C0.360432 14.2296 0.2996 14.2904 0.250003 14.36L0.170003 14.47C0.137368 14.541 0.110612 14.6146 0.0900026 14.69C0.0900026 14.69 0.0900026 14.76 0.0900026 14.79V14.85C0.0900026 14.85 0.0900026 14.85 0.0900026 14.91C0.0806355 14.9696 0.0806355 15.0304 0.0900026 15.09C0.0900026 15.09 0.0900026 15.18 0.0900026 15.22C0.13386 15.3341 0.198258 15.4391 0.280003 15.53L40.28 57.6C40.2771 57.6199 40.2771 57.6401 40.28 57.66C40.4505 57.8205 40.6758 57.9099 40.91 57.91C41.1476 57.9124 41.377 57.8229 41.55 57.66C41.55 57.66 41.55 57.66 41.55 57.6L81.55 15.53C81.6317 15.4391 81.6961 15.3341 81.74 15.22C81.74 15.22 81.74 15.13 81.74 15.09C81.7447 15.0301 81.7447 14.9699 81.74 14.91C81.74 14.91 81.84 14.87 81.84 14.85ZM18.84 4.79L10.8 14H4.13L18.84 4.79ZM3.09 15.79H10.67L19.77 33.4L3.09 15.79ZM22.79 35.34L12.68 15.83H22.79V35.34ZM22.79 13.98H13.24L22.79 3V13.98ZM57.34 1.85L52 9.08L42.83 1.85H57.34ZM58 15.05L53.42 26L42.19 2.52L58 15.05ZM28.42 26L23.81 15L39.66 2.52L28.42 26ZM39 1.85L29.88 9.08L24.51 1.85H39ZM23.69 2.32L29.13 9.65L23.71 14L23.69 2.32ZM23.69 17.2L27.87 27.14L23.69 35.87V17.2ZM23.84 37.71L28.35 28.28L33.42 40.38L30.03 44.23L23.84 37.71ZM30.66 44.9L33.82 41.32L39 53.68L30.66 44.9ZM42.8 53.68L48 41.32L51.15 44.9L42.8 53.68ZM51.8 44.23L48.4 40.38L53.48 28.28L58 37.71L51.8 44.23ZM58.13 35.87L54 27.14L58.17 17.2L58.13 35.87ZM58.13 13.95L52.7 9.65L58.13 2.32V13.95ZM77.71 13.95H71.05L63 4.79L77.71 13.95ZM59.06 3L68.61 14H59.06V3ZM59.06 15.8H69.17L59.06 35.34V15.8ZM62.06 33.37L71.17 15.8H78.75L62.06 33.37ZM46.64 68.37H35.18L40.92 61.37L46.64 68.37ZM4.63 28L13.79 37.55H4.63V28ZM77.22 37.55H68.05L77.22 28V37.55Z" fill="url(#paint0_linear_365_17)"/>
<path d="M6.18682 76.35H10.9268V77.25H10.7018C10.3618 77.25 10.0818 77.285 9.86182 77.355C9.65182 77.425 9.54682 77.57 9.54682 77.79V83.55C9.54682 84.23 9.45682 84.81 9.27682 85.29C9.10682 85.76 8.86182 86.14 8.54182 86.43C8.22182 86.71 7.83682 86.915 7.38682 87.045C6.93682 87.175 6.43682 87.24 5.88681 87.24C5.37681 87.24 4.91681 87.18 4.50682 87.06C4.10681 86.95 3.76181 86.81 3.47181 86.64C3.19181 86.47 2.96181 86.305 2.78181 86.145V83.955H4.49182V86.055C4.31181 86.005 4.16181 85.94 4.04182 85.86C3.92181 85.77 3.83681 85.685 3.78681 85.605C3.74681 85.525 3.74181 85.465 3.77181 85.425C3.81181 85.385 3.89181 85.38 4.01181 85.41C4.12182 85.54 4.25682 85.67 4.41681 85.8C4.58681 85.92 4.78681 86.02 5.01681 86.1C5.24681 86.17 5.51182 86.205 5.81182 86.205C6.22182 86.205 6.56682 86.135 6.84682 85.995C7.12682 85.845 7.33682 85.58 7.47682 85.2C7.62682 84.82 7.70182 84.275 7.70182 83.565V77.79C7.70182 77.64 7.64682 77.53 7.53682 77.46C7.43682 77.38 7.29682 77.325 7.11682 77.295C6.94682 77.265 6.74681 77.25 6.51681 77.25H6.18682V76.35ZM21.0829 83.655V87H12.5479V86.1H12.6979C13.0379 86.1 13.3179 86.065 13.5379 85.995C13.7579 85.925 13.8679 85.78 13.8679 85.56V77.79C13.8679 77.57 13.7579 77.425 13.5379 77.355C13.3179 77.285 13.0379 77.25 12.6979 77.25H12.5479V76.35H20.7079V79.32H19.6729L19.5229 78.015C19.5029 77.835 19.4279 77.7 19.2979 77.61C19.1679 77.51 18.9779 77.445 18.7279 77.415C18.4779 77.375 18.1529 77.355 17.7529 77.355H15.7129V85.995H18.0229C18.3329 85.995 18.5979 85.99 18.8179 85.98C19.0479 85.96 19.2329 85.925 19.3729 85.875C19.5229 85.825 19.6329 85.755 19.7029 85.665C19.7829 85.575 19.8279 85.465 19.8379 85.335L20.0179 83.655H21.0829ZM15.3529 81.09C15.7929 81.06 16.2279 81.035 16.6579 81.015C17.0879 80.995 17.5179 80.975 17.9479 80.955C18.3879 80.935 18.8229 80.915 19.2529 80.895V82.185C18.8229 82.155 18.3929 82.13 17.9629 82.11C17.5329 82.09 17.0979 82.07 16.6579 82.05C16.2279 82.03 15.7929 82.01 15.3529 81.99V81.09ZM22.387 76.35H26.5571V77.25H26.317C26.157 77.25 25.992 77.26 25.822 77.28C25.652 77.29 25.507 77.305 25.387 77.325C25.277 77.345 25.222 77.375 25.222 77.415L27.2471 85.92L27.067 85.905L29.377 76.35H31.342L33.697 85.875L33.5171 85.89L35.4821 77.55C35.4821 77.49 35.4271 77.44 35.3171 77.4C35.2071 77.35 35.0721 77.315 34.9121 77.295C34.7521 77.265 34.5871 77.25 34.4171 77.25H34.2071V76.35H37.5371V77.25H37.447C37.1871 77.25 36.9721 77.3 36.802 77.4C36.6321 77.49 36.5221 77.66 36.4721 77.91L34.2971 87H32.2721L29.932 77.565H30.1121L27.832 87H25.762L23.437 77.76C23.377 77.52 23.267 77.375 23.107 77.325C22.947 77.275 22.737 77.25 22.477 77.25H22.387V76.35ZM47.2737 83.655V87H38.7387V86.1H38.8887C39.2287 86.1 39.5087 86.065 39.7287 85.995C39.9487 85.925 40.0587 85.78 40.0587 85.56V77.79C40.0587 77.57 39.9487 77.425 39.7287 77.355C39.5087 77.285 39.2287 77.25 38.8887 77.25H38.7387V76.35H46.8987V79.32H45.8637L45.7137 78.015C45.6937 77.835 45.6187 77.7 45.4887 77.61C45.3587 77.51 45.1687 77.445 44.9187 77.415C44.6687 77.375 44.3437 77.355 43.9437 77.355H41.9037V85.995H44.2137C44.5237 85.995 44.7887 85.99 45.0087 85.98C45.2387 85.96 45.4237 85.925 45.5637 85.875C45.7137 85.825 45.8237 85.755 45.8937 85.665C45.9737 85.575 46.0187 85.465 46.0287 85.335L46.2087 83.655H47.2737ZM41.5437 81.09C41.9837 81.06 42.4187 81.035 42.8487 81.015C43.2787 80.995 43.7087 80.975 44.1387 80.955C44.5787 80.935 45.0137 80.915 45.4437 80.895V82.185C45.0137 82.155 44.5837 82.13 44.1537 82.11C43.7237 82.09 43.2887 82.07 42.8487 82.05C42.4187 82.03 41.9837 82.01 41.5437 81.99V81.09ZM53.7808 76.35V77.25H53.5708C53.2108 77.25 52.9158 77.285 52.6858 77.355C52.4558 77.425 52.3408 77.57 52.3408 77.79V85.995H54.4258C54.8458 85.995 55.1858 85.98 55.4458 85.95C55.7058 85.91 55.9008 85.845 56.0308 85.755C56.1608 85.655 56.2358 85.515 56.2558 85.335L56.4208 83.475H57.5008V87H49.1608V86.1H49.3108C49.6508 86.1 49.9308 86.065 50.1508 85.995C50.3708 85.925 50.4808 85.78 50.4808 85.56V77.79C50.4808 77.57 50.3708 77.425 50.1508 77.355C49.9308 77.285 49.6508 77.25 49.3108 77.25H49.1608V76.35H53.7808ZM64.063 82.185L65.803 81.825L67.843 85.47C67.943 85.64 68.048 85.775 68.158 85.875C68.278 85.965 68.408 86.025 68.548 86.055C68.698 86.085 68.858 86.1 69.028 86.1H69.163V87H66.553L64.063 82.185ZM62.323 85.95C62.323 85.98 62.358 86.005 62.428 86.025C62.498 86.035 62.588 86.05 62.698 86.07C62.808 86.08 62.928 86.09 63.058 86.1C63.198 86.1 63.338 86.1 63.478 86.1H63.703V87H59.158V86.1H59.308C59.648 86.1 59.928 86.065 60.148 85.995C60.368 85.925 60.478 85.78 60.478 85.56V77.79C60.478 77.57 60.368 77.425 60.148 77.355C59.928 77.285 59.648 77.25 59.308 77.25H59.158V76.35H64.153C64.963 76.35 65.653 76.47 66.223 76.71C66.803 76.94 67.243 77.28 67.543 77.73C67.853 78.17 68.008 78.705 68.008 79.335C68.008 79.855 67.888 80.32 67.648 80.73C67.418 81.14 67.083 81.48 66.643 81.75C66.213 82.02 65.693 82.215 65.083 82.335C64.993 82.375 64.898 82.41 64.798 82.44C64.708 82.46 64.618 82.485 64.528 82.515C64.438 82.535 64.343 82.545 64.243 82.545H62.053V81.585H63.898C64.398 81.585 64.803 81.5 65.113 81.33C65.433 81.15 65.668 80.895 65.818 80.565C65.968 80.235 66.043 79.845 66.043 79.395C66.043 78.955 65.968 78.585 65.818 78.285C65.668 77.975 65.438 77.74 65.128 77.58C64.818 77.42 64.433 77.34 63.973 77.34H62.323V85.95ZM73.6067 82.32L73.7867 82.995L70.6817 77.73C70.5917 77.59 70.4967 77.485 70.3967 77.415C70.2967 77.345 70.1817 77.3 70.0517 77.28C69.9317 77.26 69.7867 77.25 69.6167 77.25H69.5117V76.35H73.7117V77.25H73.4567C73.2967 77.25 73.1317 77.26 72.9617 77.28C72.8017 77.29 72.6667 77.305 72.5567 77.325C72.4467 77.345 72.3917 77.375 72.3917 77.415L75.1517 82.215L74.6867 82.245L77.2967 77.55C77.2967 77.49 77.2417 77.44 77.1317 77.4C77.0217 77.35 76.8817 77.315 76.7117 77.295C76.5517 77.265 76.3817 77.25 76.2017 77.25H76.0217V76.35H79.5017V77.25H79.3817C79.2217 77.25 79.0717 77.27 78.9317 77.31C78.8017 77.34 78.6767 77.405 78.5567 77.505C78.4467 77.595 78.3417 77.735 78.2417 77.925L75.3167 83.04L75.4817 82.32V85.56C75.4817 85.78 75.5917 85.925 75.8117 85.995C76.0317 86.065 76.3117 86.1 76.6517 86.1H76.9217V87H72.1667V86.1H72.4367C72.7767 86.1 73.0567 86.065 73.2767 85.995C73.4967 85.925 73.6067 85.78 73.6067 85.56V82.32Z" fill="#D9B384"/>
<defs>
<linearGradient id="paint0_linear_365_17" x1="61.13" y1="64.44" x2="23.69" y2="-0.399994" gradientUnits="userSpaceOnUse">
<stop offset="0.16" stop-color="#F8EAA1"/>
<stop offset="0.25" stop-color="#F2DF97"/>
<stop offset="0.39" stop-color="#E1C37B"/>
<stop offset="0.44" stop-color="#D9B384"/>
<stop offset="0.88" stop-color="#A47D4F"/>
</linearGradient>
</defs>
</svg>
