<svg width="82" height="69" viewBox="0 0 82 69" fill="none" xmlns="http://www.w3.org/2000/svg">
<path d="M35.597 60.29L19.447 43.38C19.3618 43.2875 19.2582 43.214 19.1427 43.164C19.0273 43.1141 18.9028 43.0889 18.777 43.09H0.917025C0.738617 43.0925 0.564698 43.1463 0.416014 43.2449C0.26733 43.3436 0.150159 43.4829 0.0784763 43.6463C0.00679405 43.8097 -0.0163726 43.9902 0.0117399 44.1664C0.0398523 44.3426 0.118057 44.507 0.237025 44.64L15.707 61.55C15.7937 61.6441 15.8988 61.7193 16.0158 61.7709C16.1328 61.8225 16.2591 61.8494 16.387 61.85H34.917C35.0975 61.8481 35.2737 61.7943 35.4244 61.695C35.5751 61.5957 35.6941 61.4551 35.767 61.29C35.8398 61.125 35.8625 60.9422 35.8323 60.7645C35.8021 60.5867 35.7203 60.4217 35.597 60.29ZM18.727 45.29L25.597 55.76L18.227 52.11L14.037 44.93H18.387L18.727 45.29ZM4.03702 46.09L16.737 52.4L11.587 54.32L4.03702 46.09ZM12.977 44.93L16.727 51.36L3.72703 44.93H12.977ZM12.257 55.05L17.917 53L25.427 56.73L16.917 60H16.827L12.257 55.05ZM45.917 61.29C45.9889 61.4559 46.1076 61.5972 46.2586 61.6966C46.4096 61.7961 46.5862 61.8494 46.767 61.85H65.287C65.415 61.85 65.5416 61.8234 65.6587 61.7717C65.7758 61.7201 65.8808 61.6446 65.967 61.55L81.487 44.64C81.6103 44.5083 81.6921 44.3433 81.7223 44.1655C81.7525 43.9878 81.7298 43.805 81.657 43.64C81.5843 43.4776 81.4665 43.3394 81.3176 43.2419C81.1687 43.1444 80.995 43.0917 80.817 43.09H62.917C62.7928 43.089 62.6697 43.1143 62.556 43.1643C62.4422 43.2143 62.3403 43.2878 62.257 43.38L46.077 60.29C45.9577 60.424 45.8792 60.5894 45.8508 60.7666C45.8225 60.9438 45.8455 61.1254 45.917 61.29ZM63.317 44.94H67.657L63.467 52.12L56.097 55.77L62.917 45.3L63.317 44.94ZM70.117 54.33L64.917 52.41L77.617 46.1L70.117 54.33ZM77.917 44.94L64.917 51.37L68.667 44.94H77.917ZM64.917 60H64.817L56.327 56.7L63.807 53L69.417 55.09L64.917 60ZM81.757 14.85V14.79C81.757 14.79 81.757 14.73 81.757 14.69C81.7456 14.612 81.7184 14.5371 81.677 14.47L81.607 14.36C81.5574 14.2904 81.4966 14.2296 81.427 14.18L81.367 14.12L58.997 0.14C58.8535 0.0489335 58.687 0.000393414 58.517 0L23.167 0C22.997 0.000393414 22.8306 0.0489335 22.687 0.14L0.347025 14.12V14.18C0.277454 14.2296 0.216623 14.2904 0.167025 14.36L0.0870253 14.47C0.054391 14.541 0.0276347 14.6146 0.00702531 14.69C0.00702531 14.69 0.00702531 14.76 0.00702531 14.79V14.85C0.00702531 14.85 0.00702531 14.85 0.00702531 14.91C-0.00234177 14.9696 -0.00234177 15.0304 0.00702531 15.09C0.00702531 15.09 0.00702531 15.18 0.00702531 15.22C0.050883 15.3341 0.115281 15.4391 0.197025 15.53L40.197 57.6C40.1942 57.6199 40.1942 57.6401 40.197 57.66C40.3676 57.8205 40.5929 57.9099 40.827 57.91C41.0646 57.9124 41.294 57.8229 41.467 57.66C41.467 57.66 41.467 57.66 41.467 57.6L81.467 15.53C81.5488 15.4391 81.6132 15.3341 81.657 15.22C81.657 15.22 81.657 15.13 81.657 15.09C81.6617 15.0301 81.6617 14.9699 81.657 14.91C81.657 14.91 81.757 14.87 81.757 14.85ZM18.757 4.79L10.717 14H4.04703L18.757 4.79ZM3.00703 15.79H10.587L19.687 33.4L3.00703 15.79ZM22.707 35.34L12.597 15.83H22.707V35.34ZM22.707 13.98H13.157L22.707 3V13.98ZM57.257 1.85L51.917 9.08L42.747 1.85H57.257ZM57.917 15.05L53.337 26L42.107 2.52L57.917 15.05ZM28.337 26L23.727 15L39.577 2.52L28.337 26ZM38.917 1.85L29.797 9.08L24.427 1.85H38.917ZM23.607 2.32L29.047 9.65L23.627 14L23.607 2.32ZM23.607 17.2L27.787 27.14L23.607 35.87V17.2ZM23.757 37.71L28.267 28.28L33.337 40.38L29.947 44.23L23.757 37.71ZM30.577 44.9L33.737 41.32L38.917 53.68L30.577 44.9ZM42.717 53.68L47.917 41.32L51.067 44.9L42.717 53.68ZM51.717 44.23L48.317 40.38L53.397 28.28L57.917 37.71L51.717 44.23ZM58.047 35.87L53.917 27.14L58.087 17.2L58.047 35.87ZM58.047 13.95L52.617 9.65L58.047 2.32V13.95ZM77.627 13.95H70.967L62.917 4.79L77.627 13.95ZM58.977 3L68.527 14H58.977V3ZM58.977 15.8H69.087L58.977 35.34V15.8ZM61.977 33.37L71.087 15.8H78.667L61.977 33.37ZM46.557 68.37H35.097L40.837 61.37L46.557 68.37ZM4.54703 28L13.707 37.55H4.54703V28ZM77.137 37.55H67.967L77.137 28V37.55Z" fill="url(#paint0_linear_365_20)"/>
<defs>
<linearGradient id="paint0_linear_365_20" x1="61.047" y1="64.44" x2="23.607" y2="-0.399994" gradientUnits="userSpaceOnUse">
<stop offset="0.16" stop-color="#F8EAA1"/>
<stop offset="0.25" stop-color="#F2DF97"/>
<stop offset="0.39" stop-color="#E1C37B"/>
<stop offset="0.44" stop-color="#D9B384"/>
<stop offset="0.88" stop-color="#A47D4F"/>
</linearGradient>
</defs>
</svg>
