<svg width="25" height="25" viewBox="0 0 25 25" fill="none" xmlns="http://www.w3.org/2000/svg">
<mask id="mask0_799_7" style="mask-type:alpha" maskUnits="userSpaceOnUse" x="0" y="0" width="25" height="25">
<rect x="0.294678" y="0.759033" width="24" height="24" fill="#D9D9D9"/>
</mask>
<g mask="url(#mask0_799_7)">
<path d="M19.837 21.3361L13.5562 15.055C13.0562 15.4679 12.4812 15.791 11.8312 16.0243C11.1812 16.2576 10.5088 16.3743 9.81398 16.3743C8.10481 16.3743 6.65831 15.7825 5.47448 14.599C4.29065 13.4155 3.69873 11.9694 3.69873 10.2605C3.69873 8.55188 4.29048 7.10522 5.47398 5.92055C6.65748 4.73605 8.10365 4.1438 9.81248 4.1438C11.5211 4.1438 12.9678 4.73571 14.1525 5.91955C15.337 7.10338 15.9292 8.54988 15.9292 10.259C15.9292 10.9732 15.8094 11.6553 15.5697 12.3053C15.3299 12.9553 15.01 13.5206 14.61 14.0013L20.8907 20.282L19.837 21.3361ZM9.81398 14.8745C11.1025 14.8745 12.1938 14.4274 13.088 13.533C13.9823 12.6389 14.4295 11.5475 14.4295 10.259C14.4295 8.97055 13.9823 7.87921 13.088 6.98505C12.1938 6.09071 11.1025 5.64355 9.81398 5.64355C8.52548 5.64355 7.43415 6.09071 6.53998 6.98505C5.64565 7.87921 5.19848 8.97055 5.19848 10.259C5.19848 11.5475 5.64565 12.6389 6.53998 13.533C7.43415 14.4274 8.52548 14.8745 9.81398 14.8745Z" fill="black" fill-opacity="0.5"/>
</g>
</svg>
