<svg width="24" height="24" viewBox="0 0 24 24" fill="none" xmlns="http://www.w3.org/2000/svg">
<path d="M16.949 14.121L19.071 12C20.0067 11.0613 20.5321 9.78989 20.5321 8.46447C20.5321 7.13905 20.0067 5.86768 19.071 4.92897C18.1325 3.99277 16.861 3.46702 15.5355 3.46702C14.2099 3.46702 12.9384 3.99277 12 4.92897L11.293 5.63597L12.707 7.04997L13.414 6.34297C13.9775 5.78196 14.7403 5.467 15.5355 5.467C16.3306 5.467 17.0934 5.78196 17.657 6.34297C18.2185 6.90624 18.5338 7.66914 18.5338 8.46447C18.5338 9.2598 18.2185 10.0227 17.657 10.586L15.535 12.707C15.292 12.9484 15.0056 13.1417 14.691 13.277L13.414 12L14.828 10.586L14.121 9.87897C13.6579 9.41309 13.1071 9.04371 12.5003 8.79224C11.8935 8.54076 11.2428 8.41219 10.586 8.41397C10.351 8.41397 10.122 8.44597 9.89497 8.47997L3.70697 2.29297L2.29297 3.70697L20.293 21.707L21.707 20.293L16.171 14.757C16.448 14.573 16.709 14.361 16.949 14.121ZM10.586 17.657C10.0224 18.218 9.25964 18.5329 8.46447 18.5329C7.6693 18.5329 6.9065 18.218 6.34297 17.657C5.78147 17.0937 5.46618 16.3308 5.46618 15.5355C5.46618 14.7401 5.78147 13.9772 6.34297 13.414L7.81897 11.939L6.40497 10.525L4.92897 12C3.99326 12.9387 3.46784 14.2101 3.46784 15.5355C3.46784 16.8609 3.99326 18.1323 4.92897 19.071C5.39284 19.5355 5.94394 19.9038 6.55059 20.1547C7.15724 20.4056 7.80748 20.5342 8.46397 20.533C9.12063 20.5343 9.77108 20.4059 10.3779 20.155C10.9848 19.9041 11.536 19.5357 12 19.071L12.707 18.364L11.293 16.95L10.586 17.657Z" fill="black" fill-opacity="0.6"/>
</svg>
